<svg width="28" height="28" viewBox="0 0 28 28" fill="none" xmlns="http://www.w3.org/2000/svg">
<g clip-path="url(#clip0_200_228)">
<path d="M21.8383 22.2494C22.2249 22.2494 22.5383 21.936 22.5383 21.5494L22.5383 6.44772C22.5383 6.31827 22.5128 6.19007 22.4633 6.07046C22.4138 5.95086 22.3412 5.84218 22.2497 5.75064C22.1581 5.6591 22.0495 5.5865 21.9298 5.53698C21.8102 5.48746 21.682 5.46199 21.5526 5.46203L6.45092 5.46203C6.0643 5.46203 5.75089 5.77547 5.75092 6.16209L5.75097 6.73364C5.75101 7.12022 6.0644 7.43358 6.45097 7.43358L19.1725 7.43358L5.54836 21.0577C5.275 21.3311 5.27499 21.7743 5.54836 22.0477L5.95265 22.4519C6.22602 22.7253 6.66923 22.7253 6.9426 22.4519L20.5667 8.82782L20.5669 21.5495C20.5669 21.9361 20.8803 22.2494 21.2669 22.2494L21.8383 22.2494Z" fill="white"/>
</g>
<defs>
<clipPath id="clip0_200_228">
<rect width="28" height="28" fill="white"/>
</clipPath>
</defs>
</svg>
