<svg width="28" height="28" viewBox="0 0 28 28" fill="none" xmlns="http://www.w3.org/2000/svg">
<g clip-path="url(#clip0_83_258)">
<path d="M21.8383 22.2496C22.2249 22.2496 22.5383 21.9362 22.5383 21.5496L22.5383 6.44784C22.5383 6.31839 22.5128 6.19019 22.4633 6.07059C22.4138 5.95098 22.3412 5.8423 22.2497 5.75076C22.1581 5.65923 22.0495 5.58662 21.9298 5.5371C21.8102 5.48758 21.682 5.46211 21.5526 5.46215L6.45092 5.46215C6.0643 5.46215 5.75089 5.77559 5.75092 6.16222L5.75097 6.73377C5.75101 7.12034 6.0644 7.4337 6.45097 7.4337L19.1725 7.4337L5.54836 21.0578C5.275 21.3312 5.27499 21.7744 5.54836 22.0478L5.95265 22.4521C6.22602 22.7254 6.66923 22.7254 6.9426 22.4521L20.5667 8.82794L20.5669 21.5496C20.5669 21.9362 20.8803 22.2496 21.2669 22.2496L21.8383 22.2496Z" fill="#202020"/>
</g>
<defs>
<clipPath id="clip0_83_258">
<rect width="28" height="28" fill="white"/>
</clipPath>
</defs>
</svg>
