<svg width="24" height="24" viewBox="0 0 24 24" fill="none" xmlns="http://www.w3.org/2000/svg">
<g clip-path="url(#clip0_179_325)">
<path d="M12.2158 21.772C12.7807 17.7374 13.0631 15.7201 14.3916 14.3916C15.7201 13.0631 17.7374 12.7807 21.772 12.2158L23.3136 12L21.772 11.7842C17.7374 11.2193 15.7201 10.9369 14.3916 9.60842C13.0631 8.27993 12.7807 6.26263 12.2158 2.22803L12 0.686323L11.7842 2.22801C11.2193 6.26262 10.9369 8.27992 9.60842 9.6084C8.27994 10.9369 6.26263 11.2193 2.22803 11.7842L0.686279 12L2.22803 12.2158C6.26263 12.7807 8.27994 13.0631 9.60842 14.3916C10.9369 15.7201 11.2193 17.7374 11.7842 21.772L12 23.3137L12.2158 21.772Z" fill="white"/>
</g>
<defs>
<clipPath id="clip0_179_325">
<rect width="24" height="24" fill="white"/>
</clipPath>
</defs>
</svg>
